<svg xmlns="http://www.w3.org/2000/svg" width="1280" height="640" viewBox="0 0 1280 640">
  <defs>
    <linearGradient id="bg" x1="0" y1="0" x2="1" y2="1">
      <stop offset="0" stop-color="#090d16"/>
      <stop offset="0.55" stop-color="#111827"/>
      <stop offset="1" stop-color="#1e1b4b"/>
    </linearGradient>
    <linearGradient id="accent" x1="0" y1="0" x2="1" y2="0">
      <stop offset="0" stop-color="#6366f1"/>
      <stop offset="0.5" stop-color="#8b5cf6"/>
      <stop offset="1" stop-color="#10b981"/>
    </linearGradient>
    <linearGradient id="card" x1="0" y1="0" x2="0" y2="1">
      <stop offset="0" stop-color="#1f2937"/>
      <stop offset="1" stop-color="#111827"/>
    </linearGradient>
    <radialGradient id="glow" cx="0.75" cy="0.25" r="0.8">
      <stop offset="0" stop-color="#6366f1" stop-opacity="0.55"/>
      <stop offset="1" stop-color="#6366f1" stop-opacity="0"/>
    </radialGradient>
  </defs>
  <rect width="1280" height="640" fill="url(#bg)"/>
  <rect width="1280" height="640" fill="url(#glow)"/>
  <circle cx="1080" cy="120" r="180" fill="#6366f1" opacity="0.18"/>
  <circle cx="180" cy="540" r="220" fill="#10b981" opacity="0.12"/>
  <rect x="80" y="80" width="1120" height="480" rx="32" fill="none" stroke="#26314a" stroke-width="2"/>
  <rect x="120" y="130" width="84" height="84" rx="20" fill="url(#accent)"/>
  <text x="162" y="188" font-family="Arial,Helvetica,sans-serif" font-size="44" font-weight="800" fill="#06070d" text-anchor="middle">IB</text>
  <text x="224" y="162" font-family="Arial,Helvetica,sans-serif" font-size="42" font-weight="800" fill="#ffffff">InteeBuild</text>
  <text x="224" y="192" font-family="Arial,Helvetica,sans-serif" font-size="20" fill="#9ca3af">Web → APK / AAB nativo</text>
  <text x="120" y="290" font-family="Arial,Helvetica,sans-serif" font-size="68" font-weight="800" fill="#ffffff">Convierte tu web en</text>
  <text x="120" y="360" font-family="Arial,Helvetica,sans-serif" font-size="68" font-weight="800" fill="url(#accent)">App Nativa Android</text>
  <text x="120" y="405" font-family="Arial,Helvetica,sans-serif" font-size="24" fill="#9ca3af">Permission Engine · Providers · API · Decompiler · Gratis y open source</text>
  <g font-family="Arial,Helvetica,sans-serif" font-size="20" font-weight="700">
    <rect x="120" y="440" width="150" height="48" rx="24" fill="#6366f1"/>
    <text x="195" y="470" fill="#fff" text-anchor="middle">APK + AAB</text>
    <rect x="282" y="440" width="170" height="48" rx="24" fill="none" stroke="#374151" stroke-width="2"/>
    <text x="367" y="470" fill="#e5e7eb" text-anchor="middle">27 permisos</text>
    <rect x="464" y="440" width="150" height="48" rx="24" fill="none" stroke="#374151" stroke-width="2"/>
    <text x="539" y="470" fill="#e5e7eb" text-anchor="middle">7 providers</text>
  </g>
  <g>
    <rect x="880" y="150" width="220" height="400" rx="36" fill="#0b0f1a" stroke="#374151" stroke-width="3"/>
    <rect x="900" y="175" width="180" height="350" rx="20" fill="url(#card)" stroke="#26314a" stroke-width="2"/>
    <rect x="960" y="165" width="60" height="12" rx="6" fill="#111827"/>
    <circle cx="990" cy="240" r="34" fill="url(#accent)"/>
    <text x="990" y="252" font-family="Arial" font-size="28" font-weight="800" fill="#06070d" text-anchor="middle">IB</text>
    <text x="990" y="300" font-family="Arial" font-size="20" font-weight="700" fill="#fff" text-anchor="middle">Mi App</text>
    <rect x="920" y="320" width="140" height="36" rx="18" fill="#6366f1"/>
    <text x="990" y="344" font-family="Arial" font-size="16" font-weight="700" fill="#fff" text-anchor="middle">Abrir</text>
    <rect x="920" y="366" width="140" height="14" rx="7" fill="#1f2937"/>
    <rect x="920" y="388" width="100" height="14" rx="7" fill="#1f2937"/>
    <rect x="920" y="470" width="140" height="40" rx="12" fill="#10b981"/>
    <text x="990" y="496" font-family="Arial" font-size="16" font-weight="800" fill="#06070d" text-anchor="middle">92% READY</text>
  </g>
  <text x="120" y="520" font-family="Arial,Helvetica,sans-serif" font-size="20" fill="#6b7280">github.com/Fluxionics/InteeBuild · MIT · Capacitor · Native · TWA</text>
</svg>
